HIERARCHY
ROOT Hips
{
	OFFSET	0.00	0.00	0.00
	CHANNELS 6 Xposition Yposition Zposition Zrotation Xrotation Yrotation
	JOINT LeftUpLeg
	{
		OFFSET	 0.126116	-0.014019	-0.065224
		CHANNELS 3 Zrotation Xrotation Yrotation
		JOINT LeftLeg
		{
			OFFSET	 0.000000	 0.000000	 0.569914
			CHANNELS 3 Zrotation Xrotation Yrotation
			JOINT LeftFoot
			{
				OFFSET	 0.000000	 0.000000	 0.544423
				CHANNELS 3 Zrotation Xrotation Yrotation
				JOINT LeftToeBase
				{
					OFFSET	 0.000000	 0.000000	 0.207117
					CHANNELS 3 Zrotation Xrotation Yrotation
					End Site
					{
						OFFSET	 0.000000	 0.000000	 0.207117
					}
				}
			}
		}
	}
	JOINT RightUpLeg
	{
		OFFSET	-0.124023	-0.008373	-0.065224
		CHANNELS 3 Zrotation Xrotation Yrotation
		JOINT RightLeg
		{
			OFFSET	 0.000000	 0.000000	 0.570047
			CHANNELS 3 Zrotation Xrotation Yrotation
			JOINT RightFoot
			{
				OFFSET	 0.000000	 0.000000	 0.544354
				CHANNELS 3 Zrotation Xrotation Yrotation
				JOINT RightToeBase
				{
					OFFSET	 0.000000	 0.000000	 0.207540
					CHANNELS 3 Zrotation Xrotation Yrotation
					End Site
					{
						OFFSET	 0.000000	 0.000000	 0.207540
					}
				}
			}
		}
	}
	JOINT Spine
	{
		OFFSET	 0.000184	-0.007763	 0.117403
		CHANNELS 3 Zrotation Xrotation Yrotation
		JOINT Spine1
		{
			OFFSET	 0.000000	 0.000000	 0.137269
			CHANNELS 3 Zrotation Xrotation Yrotation
			JOINT Spine2
			{
				OFFSET	 0.000000	 0.000000	 0.156879
				CHANNELS 3 Zrotation Xrotation Yrotation
				JOINT LeftShoulder
				{
					OFFSET	 0.080501	-0.002496	 0.160144
					CHANNELS 3 Zrotation Xrotation Yrotation
					JOINT LeftArm
					{
						OFFSET	 0.000000	 0.000000	 0.164363
						CHANNELS 3 Zrotation Xrotation Yrotation
						JOINT LeftForeArm
						{
							OFFSET	 0.000000	 0.000000	 0.364576
							CHANNELS 3 Zrotation Xrotation Yrotation
							JOINT LeftHand
							{
								OFFSET	 0.000000	 0.000000	 0.360812
								CHANNELS 3 Zrotation Xrotation Yrotation
								JOINT LeftHandIndex1
								{
									OFFSET	 0.000000	 0.000000	 0.086006
									CHANNELS 3 Zrotation Xrotation Yrotation
									JOINT LeftHandIndex2
									{
										OFFSET	 0.000000	 0.000000	 0.047236
										CHANNELS 3 Zrotation Xrotation Yrotation
										JOINT LeftHandIndex3
										{
											OFFSET	-0.004284	-0.000551	 0.038166
											CHANNELS 3 Zrotation Xrotation Yrotation
											End Site
											{
												OFFSET	-0.004284	-0.000551	 0.038166
											}
										}
									}
								}
							}
						}
					}
				}
				JOINT Neck
				{
					OFFSET	 0.000000	 0.000000	 0.176489
					CHANNELS 3 Zrotation Xrotation Yrotation
					JOINT Head
					{
						OFFSET	 0.000000	-0.001747	 0.077940
						CHANNELS 3 Zrotation Xrotation Yrotation
						End Site
						{
							OFFSET	 0.000000	-0.001747	 0.077940
						}
					}
				}
				JOINT RightShoulder
				{
					OFFSET	-0.080363	 0.000306	 0.159706
					CHANNELS 3 Zrotation Xrotation Yrotation
					JOINT RightArm
					{
						OFFSET	 0.000000	 0.000000	 0.164196
						CHANNELS 3 Zrotation Xrotation Yrotation
						JOINT RightForeArm
						{
							OFFSET	 0.000000	 0.000000	 0.365611
							CHANNELS 3 Zrotation Xrotation Yrotation
							JOINT RightHand
							{
								OFFSET	 0.000000	 0.000000	 0.360648
								CHANNELS 3 Zrotation Xrotation Yrotation
								JOINT RightHandIndex1
								{
									OFFSET	 0.000000	 0.000000	 0.069977
									CHANNELS 3 Zrotation Xrotation Yrotation
									JOINT RightHandIndex2
									{
										OFFSET	 0.000000	 0.000000	 0.052305
										CHANNELS 3 Zrotation Xrotation Yrotation
										JOINT RightHandIndex3
										{
											OFFSET	 0.009002	-0.000782	 0.042196
											CHANNELS 3 Zrotation Xrotation Yrotation
											End Site
											{
												OFFSET	 0.009002	-0.000782	 0.042196
											}
										}
									}
								}
							}
						}
					}
				}
			}
		}
	}
}
MOTION
Frames:    13
Frame Time: 0.03333334
 0.012145	 0.037306	 1.201830	 5.650076	-0.643696	-3.023868	-3.666365	-12.329230	-171.300900	 1.230718	-38.381330	 0.545172	 49.067970	 80.654140	-53.289050	-2.368577	 31.751900	-0.073029	-3.771458	-32.030610	-175.365700	 11.633040	-49.943880	 9.545595	 38.467330	 80.509260	-36.335360	 2.358996	 32.995460	 0.103119	-5.513911	 8.318695	 1.627988	-1.100656	 1.673448	-0.081369	 0.076717	-2.258817	 0.150071	-94.101920	 58.979700	 175.037600	 17.645840	 35.432320	-41.655400	-1.997519	-0.042524	-0.895666	-2.545705	-26.766460	-9.398305	-4.865175	 19.370610	-2.799328	-3.870393	 21.614950	 2.191444	-4.804405	 5.590971	 0.144310	-0.040795	-5.103639	 0.228694	-1.887184	 2.138594	 2.499489	 89.718320	 61.754230	 179.847400	-20.822930	 55.995010	 9.166952	-1.519933	-2.926601	 15.311060	-4.112269	-11.588130	 0.525208	 6.277828	 23.659800	-0.550120	 2.029552	 43.509080	-7.121089	 0.776004	 23.169880	 3.443667
 0.010882	 0.003198	 1.200686	 6.300203	 0.213838	-3.293679	-4.281587	-11.073210	-171.252500	 1.503849	-37.468000	 0.700318	 51.755540	 81.121610	-56.213190	-2.366289	 32.122470	-0.081464	-5.284173	-34.785370	-175.019700	 11.914410	-44.915370	 9.020971	 57.252410	 80.875640	-56.898070	 2.360670	 32.746680	 0.097356	-6.379997	 7.655920	 1.613422	-1.149051	 1.735251	 0.136874	-0.068006	-2.436317	 0.071579	-94.313830	 58.988080	 174.584800	 16.747900	 33.167700	-43.001160	-3.038721	-0.026680	-1.211249	-3.493844	-29.801850	-10.029250	-4.851116	 19.698930	-2.814711	-3.853705	 21.827090	 2.174485	-4.796688	 5.681766	 0.138984	-0.010330	-5.163090	 0.296485	-1.932860	 2.083195	 2.442700	 89.595760	 61.916810	 179.551300	-20.013270	 57.109670	 7.026845	-2.274879	-3.124217	 15.605470	-4.152488	-13.404870	-0.062193	 6.247967	 21.807560	-0.601572	 2.211278	 41.924750	-7.281209	 1.188101	 21.297570	 3.246905
 0.008815	-0.054080	 1.197515	 6.596045	 0.910487	-3.791642	-4.728943	-7.789246	-171.082600	 1.672258	-35.331340	 0.763188	 54.804060	 81.652570	-59.414400	-2.357982	 33.377360	-0.110440	-4.538466	-36.429660	-173.994300	 10.613940	-34.471630	 6.494377	 85.438000	 78.851940	-86.228230	 2.351629	 34.036530	 0.127524	-7.421933	 6.830583	 1.849109	-1.214689	 2.678843	 0.320161	-0.141764	-2.887185	 0.004260	-94.480650	 58.960010	 174.233700	 14.479100	 30.245310	-44.944210	-4.570165	 0.004059	-1.666977	-5.402602	-33.662490	-10.277540	-4.823649	 20.258710	-2.822930	-3.822673	 22.218490	 2.142961	-4.768694	 6.010571	 0.119601	 0.025943	-5.287394	 0.345126	-1.952303	 1.974843	 2.385705	 89.435940	 62.054580	 179.162300	-18.317950	 58.420330	 4.223405	-3.778244	-3.149482	 14.548650	-4.578088	-16.317370	-1.642419	 6.191888	 18.847180	-0.717587	 2.559145	 38.615430	-7.583091	 1.817581	 18.327700	 2.968784
 0.004838	-0.113714	 1.190750	 6.985015	 0.936354	-3.945429	-5.457488	-3.692513	-171.303300	 2.075254	-33.284290	 0.945517	 46.726070	 81.109920	-51.514120	-2.322589	 37.661000	-0.214623	-4.100143	-37.026900	-173.499600	 10.425320	-25.314270	 4.831942	 64.392660	 76.141850	-66.068510	 2.336244	 35.968450	 0.174080	-8.999110	 6.880003	 1.910382	-1.246048	 3.148317	 0.421777	-0.129281	-3.363232	-0.046295	-94.537570	 59.003660	 174.105300	 12.007470	 28.762750	-46.210520	-5.206628	 0.038859	-2.169770	-8.538239	-38.392570	-12.652750	-4.854844	 20.532220	-3.084363	-3.782504	 22.719100	 2.102172	-4.711005	 6.683213	 0.079401	 0.128859	-5.423325	 0.329083	-1.792490	 1.974808	 2.055059	 89.357630	 61.869470	 178.979800	-16.011020	 59.127410	 0.718515	-4.985346	-3.070555	 13.741500	-4.507054	-20.482150	-3.073692	 6.170024	 15.623040	-0.610822	 2.911889	 34.842220	-7.881838	 2.467287	 15.129580	 2.712094
-0.003280	-0.178657	 1.178349	 7.365220	 0.588859	-3.045308	-6.015237	 1.014888	-172.830800	 1.938896	-32.015770	 0.841069	 27.727350	 77.607600	-31.824070	-2.179660	 47.920820	-0.512785	-2.177508	-40.178860	-173.461000	 7.117663	-22.734730	 3.060045	 25.984170	 69.093240	-24.243570	 2.340529	 35.458840	 0.161625	-10.910900	 6.989010	 1.071861	-1.176038	 4.214731	 0.570300	-0.141823	-3.767902	-0.244761	-94.462990	 59.347380	 174.207700	 9.836253	 28.071860	-47.827140	-6.142597	 0.092945	-2.755479	-12.574980	-42.742100	-15.622310	-4.891242	 20.699480	-3.348572	-3.755337	 23.053980	 2.074582	-4.633553	 7.576096	 0.024888	 0.248808	-5.476551	 0.246577	-1.510673	 2.153938	 2.118324	 89.354000	 61.455170	 178.986500	-13.965080	 59.332570	-3.141881	-5.700009	-3.315765	 14.783080	-4.616340	-25.158530	-3.763396	 6.259151	 12.277530	-0.029796	 3.116121	 32.441980	-8.050765	 3.074931	 12.026230	 2.501898
-0.012360	-0.252256	 1.166492	 8.803101	-0.425586	-1.774978	-5.851517	 7.485660	-175.393400	-0.140418	-28.855490	-0.237993	 11.683660	 65.056970	-12.302290	-1.812496	 60.219090	-1.052667	 1.170805	-41.494760	-172.639500	 6.481534	-22.856550	 2.824761	 3.661224	 55.518540	 1.666783	 2.335972	 36.000450	 0.174866	-13.422610	 7.305585	-0.085129	-1.455587	 5.801097	 0.528719	-0.306475	-4.138358	-0.438723	-94.363800	 59.078300	 174.464300	 8.416774	 27.084770	-49.137290	-7.244490	 0.164139	-3.355718	-14.897020	-44.202750	-16.984830	-4.882739	 20.997200	-3.398465	-3.723046	 23.448050	 2.041813	-4.553611	 8.485437	-0.032008	 0.383052	-5.393113	 0.283577	-1.309045	 2.638813	 2.404709	 89.171320	 61.323150	 178.560700	-12.385670	 59.209990	-4.977561	-5.334417	-2.924089	 14.502670	-3.297440	-29.216330	-1.943931	 6.350249	 9.504972	 0.417962	 3.334988	 29.676490	-8.227938	 3.492525	 9.837153	 2.375121
-0.022723	-0.337908	 1.157827	 10.130410	-1.029946	-0.253150	-2.276119	 13.121250	-179.983800	 1.428889	-27.764260	 0.501365	 2.782883	 44.094770	 0.996690	-1.189550	 69.436190	-1.798540	-1.826500	-39.558470	-176.485000	 6.845331	-22.634280	 2.940809	 0.434326	 45.714280	 5.605963	 2.359224	 32.961930	 0.102339	-15.806370	 7.336749	-0.970725	-2.326882	 6.379714	-0.702972	-0.525492	-4.058381	-0.086246	-94.168500	 59.640190	 174.797500	 8.082129	 27.188630	-49.297020	-6.916978	 0.242788	-3.989758	-16.554670	-44.246280	-19.341930	-4.793450	 21.345430	-2.982187	-3.651394	 24.307900	 1.969100	-4.492244	 9.174984	-0.076108	 0.373987	-5.354370	 0.205531	-1.306063	 3.139230	 2.379840	 89.006580	 60.542630	 178.220500	-11.355560	 58.236370	-6.301167	-3.289774	-2.256770	 14.544980	 0.431844	-32.669450	 1.371284	 6.385418	 8.748957	 0.566634	 3.388241	 28.971780	-8.270377	 3.664431	 8.924016	 2.327266
-0.033255	-0.432427	 1.152996	 8.675272	-1.702476	 1.170547	 8.006950	 16.393970	 172.745700	 0.020631	-29.441270	-0.163236	 5.039488	 31.159310	 3.977124	-2.372502	 31.084970	-0.057969	-2.568496	-36.014360	 179.122600	 5.215107	-24.083350	 2.444773	 1.069108	 45.864530	 7.217165	 2.374297	 30.489640	 0.046121	-16.187690	 7.830734	-1.833237	-2.986676	 5.378825	-1.489597	-0.355372	-3.392608	-0.049501	-94.040390	 59.754530	 175.059000	 8.061568	 28.112640	-47.580940	-6.136530	 0.338592	-4.655414	-17.567310	-44.578160	-20.112480	-4.734826	 21.869130	-2.794412	-3.575203	 25.200490	 1.891825	-4.422258	 9.952408	-0.126836	 0.265720	-5.411653	 0.176406	-1.429512	 3.262495	 2.548663	 89.099990	 60.264300	 178.448900	-11.802570	 57.675960	-6.207060	-1.195917	-1.541284	 14.242030	 4.654899	-35.385520	 4.733136	 6.407609	 10.246620	 0.648772	 3.280784	 30.380840	-8.184458	 3.553479	 9.514139	 2.357863
-0.043892	-0.533224	 1.154940	 6.585558	-2.616539	 1.951155	 12.255440	 14.465340	 168.911400	-3.267903	-39.457670	-2.302762	 8.419488	 42.050910	-0.720189	-2.381156	 29.457390	-0.021859	-1.899301	-34.988890	 176.618000	 5.001688	-31.584360	 3.024012	 1.373698	 53.365770	 7.884124	 2.374321	 30.486050	 0.046041	-15.582720	 8.572356	-2.247105	-3.178068	 3.438673	-1.842728	 0.004117	-2.256702	 0.123786	-93.941230	 59.476200	 175.313900	 8.663029	 29.238710	-44.768500	-5.731627	 0.460549	-5.340611	-18.946430	-44.606350	-20.124430	-4.631248	 23.270720	-2.595453	-3.494192	 26.125850	 1.809701	-4.297041	 11.319460	-0.218721	 0.126528	-5.302944	 0.064696	-1.527145	 3.138748	 2.453481	 89.408700	 60.240240	 179.151600	-13.913680	 57.550310	-2.245703	 1.368959	-0.123293	 9.117126	 8.487449	-37.127620	 7.174417	 6.382667	 13.215730	 0.517768	 3.021525	 33.574650	-7.972919	 3.164719	 11.559260	 2.473398
-0.053311	-0.642227	 1.163943	 5.056542	-3.365906	 1.899056	 7.650272	 9.505744	 171.421800	-3.013069	-53.802170	-2.717221	 8.244424	 59.107040	-3.241669	-2.378653	 29.952010	-0.032747	-1.567102	-33.000420	 175.418900	 3.900032	-39.461890	 2.964331	 2.645788	 62.218910	 8.012249	 2.374310	 30.488370	 0.046088	-14.695640	 9.154230	-2.019365	-3.118098	 1.683978	-2.039190	 0.255556	-1.173290	 0.457710	-93.775190	 59.737780	 175.639500	 10.374160	 31.487060	-41.884510	-4.079837	 0.604897	-6.087406	-18.075280	-40.976980	-17.233190	-4.585767	 24.076440	-2.567616	-3.414711	 27.010550	 1.729167	-4.168946	 12.686160	-0.314122	-0.042935	-5.119265	-0.046281	-1.680460	 2.973740	 2.237536	 89.565340	 59.786660	 179.514400	-17.106160	 57.191960	 0.484294	 4.934032	 0.053074	 13.132510	 11.766310	-37.475800	 8.945343	 6.374740	 16.367290	 0.438057	 2.785082	 36.250690	-7.775399	 2.645931	 14.227940	 2.647219
-0.058446	-0.733399	 1.176856	 3.597528	-3.580941	 1.704882	 3.228443	 0.367565	 175.496300	-0.713158	-67.843120	-0.987181	 3.539295	 75.066930	 0.310862	-2.368208	 31.810520	-0.074367	-1.467381	-29.292080	 174.567100	 2.343361	-42.204700	 2.084511	 2.832248	 68.377320	 9.207195	 2.373786	 30.585010	 0.048244	-13.340870	 9.329839	-1.956847	-2.824657	 1.442806	-1.704407	 0.423839	-1.009882	 0.429887	-93.633480	 60.122410	 175.900900	 12.426170	 34.163450	-39.691130	-1.900512	 0.748285	-6.756189	-15.389970	-35.775140	-13.127060	-4.548479	 24.988680	-2.642690	-3.360718	 27.598960	 1.674482	-4.112055	 13.282950	-0.356933	-0.235772	-4.888027	-0.115956	-1.906858	 2.658858	 2.541479	 89.703330	 59.831250	 179.823200	-19.810710	 55.362740	 6.212932	 8.114595	 0.581697	 16.635270	 13.083670	-33.740320	 9.370447	 6.380122	 18.581500	 0.431024	 2.575787	 38.447250	-7.597367	 2.228535	 16.319870	 2.802696
-0.061533	-0.837162	 1.195802	 1.947351	-3.359333	 1.442068	 3.947934	-11.677790	 177.122000	-6.813842	-75.167530	-6.930120	 9.315324	 87.965190	-5.463523	-2.380764	 29.534700	-0.023559	-0.402078	-23.593180	 174.246000	 0.387880	-41.564560	 0.760259	 2.902213	 73.174290	 10.497360	 2.369599	 31.320670	 0.064767	-11.771770	 9.195205	-1.958670	-2.183373	 1.406546	-1.163790	 0.659207	-1.120472	 0.253224	-93.323770	 60.290590	 176.566300	 15.050790	 37.737270	-36.883880	-0.488233	 0.933553	-7.487995	-12.089420	-28.865300	-8.205307	-4.518561	 25.612700	-2.667205	-3.311366	 28.128220	 1.624499	-4.074517	 13.673320	-0.385326	-0.391379	-4.781657	-0.184607	-2.073752	 2.337913	 2.906777	 90.000060	 60.233170	-179.504900	-22.268450	 52.195460	 13.896660	 11.273030	 1.426101	 19.068410	 12.836900	-27.409160	 9.166458	 6.376946	 19.948350	 0.383364	 2.443576	 39.757350	-7.483531	 1.986439	 17.509100	 2.899008
-0.060199	-0.943870	 1.217263	 0.222933	-2.370915	 0.117037	 7.552921	-22.072020	 179.918000	-9.487069	-69.343270	-9.218416	 120.635100	 89.393810	-116.438000	-2.382015	 29.278870	-0.017957	 1.404819	-17.210580	 175.592300	-0.494067	-37.980740	 0.162385	-1.961313	 76.048990	 16.151230	 2.361525	 32.617580	 0.094371	-9.981693	 8.597622	-0.775350	-1.075868	 1.167347	-1.112593	 0.910454	-1.272527	 0.457643	-93.047400	 60.185570	 177.188300	 17.838740	 41.624730	-33.047920	 0.878238	 1.134884	-8.203941	-9.262916	-20.231320	-4.431953	-4.420285	 27.328500	-2.613335	-3.183883	 29.457780	 1.495476	-3.974080	 14.704340	-0.461829	-0.493883	-4.812699	-0.177924	-2.227213	 2.144542	 3.080674	 90.147520	 60.631700	-179.158900	-22.982400	 48.048410	 22.121810	 13.952060	 2.155057	 19.039090	 12.691260	-19.004220	 9.900262	 6.397137	 19.970200	 0.513641	 2.412757	 40.054550	-7.456856	 1.939569	 17.737190	 2.918165
